<svg width="264" height="280" viewBox="0 0 264 280" fill="none" xmlns="http://www.w3.org/2000/svg">
<mask id="mask0" mask-type="alpha" maskUnits="userSpaceOnUse" x="32" y="36" width="200" height="244">
<path d="M156 180.611V199H160C199.764 199 232 231.236 232 271V280H32V271C32 231.236 64.2355 199 104 199H108V180.611C90.7626 172.422 78.3722 155.687 76.3051 135.881C70.4803 135.058 66 130.052 66 124V110C66 104.054 70.3246 99.1181 76 98.1659V92C76 61.0721 101.072 36 132 36C162.928 36 188 61.0721 188 92V98.1659C193.675 99.1181 198 104.054 198 110V124C198 130.052 193.52 135.058 187.695 135.881C185.628 155.687 173.237 172.422 156 180.611Z" fill="white"/>
</mask>
<g mask="url(#mask0)">
<path d="M156 180.611V199H160C199.764 199 232 231.236 232 271V280H32V271C32 231.236 64.2355 199 104 199H108V180.611C90.7626 172.422 78.3722 155.687 76.3051 135.881C70.4803 135.058 66 130.052 66 124V110C66 104.054 70.3246 99.1181 76 98.1659V92C76 61.0721 101.072 36 132 36C162.928 36 188 61.0721 188 92V98.1659C193.675 99.1181 198 104.054 198 110V124C198 130.052 193.52 135.058 187.695 135.881C185.628 155.687 173.237 172.422 156 180.611Z" fill="#D0C6AC"/>
<path d="M264 36H0V280H264V36Z" fill="#EDB98A"/>
<path fill-rule="evenodd" clip-rule="evenodd" d="M188 115V138C188 168.928 162.928 194 132 194C101.072 194 76 168.928 76 138V115V130C76 160.928 101.072 186 132 186C162.928 186 188 160.928 188 130V115Z" fill="black" fill-opacity="0.1"/>
</g>
<mask id="mask1" mask-type="alpha" maskUnits="userSpaceOnUse" x="32" y="199" width="200" height="81">
<path fill-rule="evenodd" clip-rule="evenodd" d="M171.32 199.936C205.706 205.367 232 235.139 232 271.052V280H32V271.052C32 235.138 58.2944 205.366 92.6818 199.936C93.5836 205.005 96.1164 209.824 100.236 213.539L129.321 239.768C130.843 241.14 133.157 241.14 134.679 239.768L163.764 213.539C164.189 213.155 164.601 212.756 164.998 212.343C168.414 208.787 170.517 204.452 171.32 199.936Z" fill="white"/>
</mask>
<g mask="url(#mask1)">
<path fill-rule="evenodd" clip-rule="evenodd" d="M171.32 199.936C205.706 205.367 232 235.139 232 271.052V280H32V271.052C32 235.138 58.2944 205.366 92.6818 199.936C93.5836 205.005 96.1164 209.824 100.236 213.539L129.321 239.768C130.843 241.14 133.157 241.14 134.679 239.768L163.764 213.539C164.189 213.155 164.601 212.756 164.998 212.343C168.414 208.787 170.517 204.452 171.32 199.936Z" fill="#E6E6E6"/>
<path d="M264 170H0V280H264V170Z" fill="#E6E6E6"/>
</g>
<path fill-rule="evenodd" clip-rule="evenodd" d="M118 163C118 155.268 124.268 149 132 149C139.732 149 146 155.268 146 163" fill="black" fill-opacity="0.7"/>
<path fill-rule="evenodd" clip-rule="evenodd" d="M120 130C120 134.418 125.373 138 132 138C138.627 138 144 134.418 144 130" fill="black" fill-opacity="0.16"/>
<path d="M106 118C109.314 118 112 115.314 112 112C112 108.686 109.314 106 106 106C102.686 106 100 108.686 100 112C100 115.314 102.686 118 106 118Z" fill="black" fill-opacity="0.6"/>
<path d="M158 118C161.314 118 164 115.314 164 112C164 108.686 161.314 106 158 106C154.686 106 152 108.686 152 112C152 115.314 154.686 118 158 118Z" fill="black" fill-opacity="0.6"/>
<path d="M91.9758 99.1279C93.471 89.6047 106.059 83.1087 115.164 87.301C116.167 87.763 117.355 87.3242 117.817 86.3208C118.279 85.3175 117.84 84.1297 116.836 83.6677C105.349 78.3782 89.9357 86.3325 88.0242 98.5075C87.8529 99.5987 88.5986 100.622 89.6898 100.793C90.781 100.965 91.8045 100.219 91.9758 99.1279Z" fill="black" fill-opacity="0.6"/>
<path d="M172.024 99.1279C170.529 89.6047 157.942 83.1087 148.837 87.301C147.833 87.763 146.645 87.3242 146.183 86.3208C145.722 85.3175 146.16 84.1297 147.164 83.6677C158.651 78.3782 174.064 86.3325 175.976 98.5075C176.147 99.5987 175.402 100.622 174.31 100.793C173.219 100.965 172.196 100.219 172.024 99.1279Z" fill="black" fill-opacity="0.6"/>
<mask id="mask2" mask-type="alpha" maskUnits="userSpaceOnUse" x="0" y="0" width="264" height="280">
<path d="M264 0H0V280H264V0Z" fill="white"/>
</mask>
<g mask="url(#mask2)">
<g filter="url(#filter0_d)">
<path d="M101 133H98.2421C84.3147 133 76 125.336 76 112.5C76 102.127 77.817 92 99.5299 92H102.47C124.183 92 126 102.127 126 112.5C126 124.569 115.721 133 101 133ZM99.3854 98C80 98 80 104.841 80 113.502C80 120.572 83.1163 129 97.9709 129H101C113.365 129 122 122.627 122 113.502C122 104.841 122 98 102.615 98H99.3854Z" fill="#252C2F"/>
<path d="M163 133H160.242C146.315 133 138 125.336 138 112.5C138 102.127 139.817 92 161.53 92H164.47C186.183 92 188 102.127 188 112.5C188 124.569 177.721 133 163 133ZM161.385 98C142 98 142 104.841 142 113.502C142 120.572 145.119 129 159.971 129H163C175.365 129 184 122.627 184 113.502C184 104.841 184 98 164.615 98H161.385Z" fill="#252C2F"/>
<path d="M69.9545 97.7716C70.6459 97.0963 78.2095 92 99.5 92C117.351 92 121.13 93.8527 126.85 96.6519L127.269 96.8585C127.667 96.999 129.7 97.6898 132.079 97.7658C134.246 97.6728 136.1 97.0854 136.642 96.8972C143.17 93.7221 149.561 92 164.5 92C185.79 92 193.354 97.0963 194.045 97.7716C195.679 97.7716 197 99.0615 197 100.657V103.543C197 105.139 195.679 106.429 194.045 106.429C194.045 106.429 187.144 106.429 187.144 109.315C187.144 112.2 185.182 105.139 185.182 103.543V100.732C181.579 99.3534 175.128 96.7862 164.5 96.7862C152.658 96.7862 146.761 98.886 141.702 100.971L141.759 101.108L141.756 103.094L139.539 108.444L136.8 107.361C136.556 107.264 136.028 107.09 135.296 106.91C133.256 106.407 131.159 106.254 129.304 106.634C128.624 106.774 127.992 106.984 127.413 107.267L124.77 108.558L122.127 103.396L122.244 101.102L122.325 100.907C117.962 98.8739 113.939 96.7862 99.5 96.7862C88.8721 96.7862 82.4221 99.3524 78.8182 100.731V103.543C78.8182 105.139 75.8636 112.2 75.8636 109.315C75.8636 106.429 69.9545 106.429 69.9545 106.429C68.3236 106.429 67 105.139 67 103.543V100.657C67 99.0615 68.3236 97.7716 69.9545 97.7716Z" fill="#252C2F"/>
</g>
</g>
<path d="M74.108 263.368V270.232H75.812V271H71.528V270.232H73.232V263.368H71.528V262.6H75.812V263.368H74.108ZM80.7478 264.64C81.5398 264.64 82.1678 264.872 82.6318 265.336C83.1038 265.792 83.3398 266.46 83.3398 267.34V271H82.4878V267.424C82.4878 266.768 82.3238 266.268 81.9958 265.924C81.6678 265.58 81.1998 265.408 80.5918 265.408C79.9118 265.408 79.3718 265.612 78.9718 266.02C78.5798 266.42 78.3838 266.976 78.3838 267.688V271H77.5318V264.688H78.3478V265.852C78.5798 265.468 78.8998 265.172 79.3078 264.964C79.7238 264.748 80.2038 264.64 80.7478 264.64ZM88.7608 270.616C88.6008 270.76 88.4048 270.872 88.1728 270.952C87.9408 271.024 87.6968 271.06 87.4408 271.06C86.8488 271.06 86.3928 270.9 86.0728 270.58C85.7528 270.26 85.5928 269.808 85.5928 269.224V263.308H86.4448V264.688H88.3528V265.408H86.4448V269.176C86.4448 269.552 86.5368 269.84 86.7208 270.04C86.9048 270.232 87.1728 270.328 87.5248 270.328C87.9088 270.328 88.2208 270.22 88.4608 270.004L88.7608 270.616ZM92.7825 270.304C93.1745 270.304 93.5345 270.236 93.8625 270.1C94.1985 269.956 94.4825 269.748 94.7145 269.476L95.1945 270.028C94.9145 270.364 94.5665 270.62 94.1505 270.796C93.7345 270.972 93.2745 271.06 92.7705 271.06C92.1225 271.06 91.5465 270.924 91.0425 270.652C90.5385 270.372 90.1465 269.988 89.8665 269.5C89.5865 269.012 89.4465 268.46 89.4465 267.844C89.4465 267.228 89.5785 266.676 89.8425 266.188C90.1145 265.7 90.4865 265.32 90.9585 265.048C91.4305 264.776 91.9665 264.64 92.5665 264.64C93.1265 264.64 93.6305 264.768 94.0785 265.024C94.5345 265.28 94.8945 265.636 95.1585 266.092C95.4305 266.548 95.5745 267.068 95.5905 267.652L90.4065 268.66C90.5665 269.172 90.8545 269.576 91.2705 269.872C91.6945 270.16 92.1985 270.304 92.7825 270.304ZM92.5665 265.372C92.1265 265.372 91.7305 265.476 91.3785 265.684C91.0345 265.884 90.7625 266.168 90.5625 266.536C90.3705 266.896 90.2745 267.312 90.2745 267.784C90.2745 267.904 90.2785 267.992 90.2865 268.048L94.7385 267.184C94.6425 266.656 94.3985 266.224 94.0065 265.888C93.6145 265.544 93.1345 265.372 92.5665 265.372ZM98.1407 265.924C98.3407 265.5 98.6367 265.18 99.0287 264.964C99.4287 264.748 99.9207 264.64 100.505 264.64V265.468L100.301 265.456C99.6367 265.456 99.1167 265.66 98.7407 266.068C98.3647 266.476 98.1767 267.048 98.1767 267.784V271H97.3247V264.688H98.1407V265.924ZM105.263 264.64C106.055 264.64 106.683 264.872 107.147 265.336C107.619 265.792 107.855 266.46 107.855 267.34V271H107.003V267.424C107.003 266.768 106.839 266.268 106.511 265.924C106.183 265.58 105.715 265.408 105.107 265.408C104.427 265.408 103.887 265.612 103.487 266.02C103.095 266.42 102.899 266.976 102.899 267.688V271H102.047V264.688H102.863V265.852C103.095 265.468 103.415 265.172 103.823 264.964C104.239 264.748 104.719 264.64 105.263 264.64ZM115.952 264.688V271H115.136V269.752C114.88 270.176 114.54 270.5 114.116 270.724C113.7 270.948 113.228 271.06 112.7 271.06C112.108 271.06 111.572 270.924 111.092 270.652C110.612 270.38 110.236 270 109.964 269.512C109.692 269.024 109.556 268.468 109.556 267.844C109.556 267.22 109.692 266.664 109.964 266.176C110.236 265.688 110.612 265.312 111.092 265.048C111.572 264.776 112.108 264.64 112.7 264.64C113.212 264.64 113.672 264.748 114.08 264.964C114.496 265.172 114.836 265.48 115.1 265.888V264.688H115.952ZM112.772 270.304C113.212 270.304 113.608 270.204 113.96 270.004C114.32 269.796 114.6 269.504 114.8 269.128C115.008 268.752 115.112 268.324 115.112 267.844C115.112 267.364 115.008 266.936 114.8 266.56C114.6 266.184 114.32 265.896 113.96 265.696C113.608 265.488 113.212 265.384 112.772 265.384C112.324 265.384 111.92 265.488 111.56 265.696C111.208 265.896 110.928 266.184 110.72 266.56C110.52 266.936 110.42 267.364 110.42 267.844C110.42 268.324 110.52 268.752 110.72 269.128C110.928 269.504 111.208 269.796 111.56 270.004C111.92 270.204 112.324 270.304 112.772 270.304ZM120.101 271.06C119.533 271.06 119.093 270.9 118.781 270.58C118.477 270.26 118.325 269.816 118.325 269.248V262.096H119.177V269.176C119.177 269.552 119.265 269.84 119.441 270.04C119.617 270.232 119.881 270.328 120.233 270.328C120.457 270.328 120.649 270.292 120.809 270.22L120.869 270.928C120.621 271.016 120.365 271.06 120.101 271.06ZM125.348 262.6H126.236V270.232H130.94V271H125.348V262.6ZM134.721 271.06C134.113 271.06 133.565 270.924 133.077 270.652C132.589 270.372 132.205 269.988 131.925 269.5C131.645 269.012 131.505 268.46 131.505 267.844C131.505 267.228 131.645 266.676 131.925 266.188C132.205 265.7 132.589 265.32 133.077 265.048C133.565 264.776 134.113 264.64 134.721 264.64C135.329 264.64 135.877 264.776 136.365 265.048C136.853 265.32 137.233 265.7 137.505 266.188C137.785 266.676 137.925 267.228 137.925 267.844C137.925 268.46 137.785 269.012 137.505 269.5C137.233 269.988 136.853 270.372 136.365 270.652C135.877 270.924 135.329 271.06 134.721 271.06ZM134.721 270.304C135.169 270.304 135.569 270.204 135.921 270.004C136.281 269.796 136.561 269.504 136.761 269.128C136.961 268.752 137.061 268.324 137.061 267.844C137.061 267.364 136.961 266.936 136.761 266.56C136.561 266.184 136.281 265.896 135.921 265.696C135.569 265.488 135.169 265.384 134.721 265.384C134.273 265.384 133.869 265.488 133.509 265.696C133.157 265.896 132.877 266.184 132.669 266.56C132.469 266.936 132.369 267.364 132.369 267.844C132.369 268.324 132.469 268.752 132.669 269.128C132.877 269.504 133.157 269.796 133.509 270.004C133.869 270.204 134.273 270.304 134.721 270.304ZM145.509 264.688V270.232C145.509 271.304 145.245 272.096 144.717 272.608C144.197 273.128 143.409 273.388 142.353 273.388C141.769 273.388 141.213 273.3 140.685 273.124C140.165 272.956 139.741 272.72 139.413 272.416L139.845 271.768C140.149 272.04 140.517 272.252 140.949 272.404C141.389 272.556 141.849 272.632 142.329 272.632C143.129 272.632 143.717 272.444 144.093 272.068C144.469 271.7 144.657 271.124 144.657 270.34V269.536C144.393 269.936 144.045 270.24 143.613 270.448C143.189 270.656 142.717 270.76 142.197 270.76C141.605 270.76 141.065 270.632 140.577 270.376C140.097 270.112 139.717 269.748 139.437 269.284C139.165 268.812 139.029 268.28 139.029 267.688C139.029 267.096 139.165 266.568 139.437 266.104C139.717 265.64 140.097 265.28 140.577 265.024C141.057 264.768 141.597 264.64 142.197 264.64C142.733 264.64 143.217 264.748 143.649 264.964C144.081 265.18 144.429 265.492 144.693 265.9V264.688H145.509ZM142.281 270.004C142.737 270.004 143.149 269.908 143.517 269.716C143.885 269.516 144.169 269.24 144.369 268.888C144.577 268.536 144.681 268.136 144.681 267.688C144.681 267.24 144.577 266.844 144.369 266.5C144.169 266.148 143.885 265.876 143.517 265.684C143.157 265.484 142.745 265.384 142.281 265.384C141.825 265.384 141.413 265.48 141.045 265.672C140.685 265.864 140.401 266.136 140.193 266.488C139.993 266.84 139.893 267.24 139.893 267.688C139.893 268.136 139.993 268.536 140.193 268.888C140.401 269.24 140.685 269.516 141.045 269.716C141.413 269.908 141.825 270.004 142.281 270.004ZM147.891 264.688H148.743V271H147.891V264.688ZM148.323 263.308C148.147 263.308 147.999 263.248 147.879 263.128C147.759 263.008 147.699 262.864 147.699 262.696C147.699 262.536 147.759 262.396 147.879 262.276C147.999 262.156 148.147 262.096 148.323 262.096C148.499 262.096 148.647 262.156 148.767 262.276C148.887 262.388 148.947 262.524 148.947 262.684C148.947 262.86 148.887 263.008 148.767 263.128C148.647 263.248 148.499 263.308 148.323 263.308ZM153.73 271.06C153.106 271.06 152.546 270.924 152.05 270.652C151.562 270.38 151.178 270 150.898 269.512C150.618 269.016 150.478 268.46 150.478 267.844C150.478 267.228 150.618 266.676 150.898 266.188C151.178 265.7 151.562 265.32 152.05 265.048C152.546 264.776 153.106 264.64 153.73 264.64C154.274 264.64 154.758 264.748 155.182 264.964C155.614 265.172 155.954 265.48 156.202 265.888L155.566 266.32C155.358 266.008 155.094 265.776 154.774 265.624C154.454 265.464 154.106 265.384 153.73 265.384C153.274 265.384 152.862 265.488 152.494 265.696C152.134 265.896 151.85 266.184 151.642 266.56C151.442 266.936 151.342 267.364 151.342 267.844C151.342 268.332 151.442 268.764 151.642 269.14C151.85 269.508 152.134 269.796 152.494 270.004C152.862 270.204 153.274 270.304 153.73 270.304C154.106 270.304 154.454 270.228 154.774 270.076C155.094 269.924 155.358 269.692 155.566 269.38L156.202 269.812C155.954 270.22 155.614 270.532 155.182 270.748C154.75 270.956 154.266 271.06 153.73 271.06Z" fill="#24BB9C"/>
<path d="M166.5 264.148C165.676 263.668 164.764 263.392 163.764 263.32V271H162.876V263.32C161.892 263.384 160.976 263.66 160.128 264.148L159.804 263.452C160.844 262.836 162.012 262.528 163.308 262.528C164.628 262.528 165.8 262.836 166.824 263.452L166.5 264.148ZM170.033 270.304C170.425 270.304 170.785 270.236 171.113 270.1C171.449 269.956 171.733 269.748 171.965 269.476L172.445 270.028C172.165 270.364 171.817 270.62 171.401 270.796C170.985 270.972 170.525 271.06 170.021 271.06C169.373 271.06 168.797 270.924 168.293 270.652C167.789 270.372 167.397 269.988 167.117 269.5C166.837 269.012 166.697 268.46 166.697 267.844C166.697 267.228 166.829 266.676 167.093 266.188C167.365 265.7 167.737 265.32 168.209 265.048C168.681 264.776 169.217 264.64 169.817 264.64C170.377 264.64 170.881 264.768 171.329 265.024C171.785 265.28 172.145 265.636 172.409 266.092C172.681 266.548 172.825 267.068 172.841 267.652L167.657 268.66C167.817 269.172 168.105 269.576 168.521 269.872C168.945 270.16 169.449 270.304 170.033 270.304ZM169.817 265.372C169.377 265.372 168.981 265.476 168.629 265.684C168.285 265.884 168.013 266.168 167.813 266.536C167.621 266.896 167.525 267.312 167.525 267.784C167.525 267.904 167.529 267.992 167.537 268.048L171.989 267.184C171.893 266.656 171.649 266.224 171.257 265.888C170.865 265.544 170.385 265.372 169.817 265.372ZM180.335 264.688V271H179.519V269.752C179.263 270.176 178.923 270.5 178.499 270.724C178.083 270.948 177.611 271.06 177.083 271.06C176.491 271.06 175.955 270.924 175.475 270.652C174.995 270.38 174.619 270 174.347 269.512C174.075 269.024 173.939 268.468 173.939 267.844C173.939 267.22 174.075 266.664 174.347 266.176C174.619 265.688 174.995 265.312 175.475 265.048C175.955 264.776 176.491 264.64 177.083 264.64C177.595 264.64 178.055 264.748 178.463 264.964C178.879 265.172 179.219 265.48 179.483 265.888V264.688H180.335ZM177.155 270.304C177.595 270.304 177.991 270.204 178.343 270.004C178.703 269.796 178.983 269.504 179.183 269.128C179.391 268.752 179.495 268.324 179.495 267.844C179.495 267.364 179.391 266.936 179.183 266.56C178.983 266.184 178.703 265.896 178.343 265.696C177.991 265.488 177.595 265.384 177.155 265.384C176.707 265.384 176.303 265.488 175.943 265.696C175.591 265.896 175.311 266.184 175.103 266.56C174.903 266.936 174.803 267.364 174.803 267.844C174.803 268.324 174.903 268.752 175.103 269.128C175.311 269.504 175.591 269.796 175.943 270.004C176.303 270.204 176.707 270.304 177.155 270.304ZM190.58 264.64C191.372 264.64 191.992 264.868 192.44 265.324C192.896 265.78 193.124 266.452 193.124 267.34V271H192.272V267.424C192.272 266.768 192.112 266.268 191.792 265.924C191.48 265.58 191.036 265.408 190.46 265.408C189.804 265.408 189.288 265.612 188.912 266.02C188.536 266.42 188.348 266.976 188.348 267.688V271H187.496V267.424C187.496 266.768 187.336 266.268 187.016 265.924C186.704 265.58 186.256 265.408 185.672 265.408C185.024 265.408 184.508 265.612 184.124 266.02C183.748 266.42 183.56 266.976 183.56 267.688V271H182.708V264.688H183.524V265.84C183.748 265.456 184.06 265.16 184.46 264.952C184.86 264.744 185.32 264.64 185.84 264.64C186.368 264.64 186.824 264.752 187.208 264.976C187.6 265.2 187.892 265.532 188.084 265.972C188.316 265.556 188.648 265.232 189.08 265C189.52 264.76 190.02 264.64 190.58 264.64Z" fill="#2C3E4F"/>
<g filter="url(#filter1_d)">
<path d="M176 241.6L197 239.543L195.33 245.714L176 248V241.6Z" fill="#24BB9C"/>
</g>
<g filter="url(#filter2_d)">
<path d="M178.625 232L196.523 237.029L191.511 244.343L176 237.029L178.625 232Z" fill="#2C3E4F"/>
</g>
<defs>
<filter id="filter0_d" x="63" y="90" width="138" height="49" filterUnits="userSpaceOnUse" color-interpolation-filters="sRGB">
<feFlood flood-opacity="0" result="BackgroundImageFix"/>
<feColorMatrix in="SourceAlpha" type="matrix" values="0 0 0 0 0 0 0 0 0 0 0 0 0 0 0 0 0 0 127 0"/>
<feOffset dy="2"/>
<feGaussianBlur stdDeviation="2"/>
<feColorMatrix type="matrix" values="0 0 0 0 0 0 0 0 0 0 0 0 0 0 0 0 0 0 0.2 0"/>
<feBlend mode="normal" in2="BackgroundImageFix" result="effect1_dropShadow"/>
<feBlend mode="normal" in="SourceGraphic" in2="effect1_dropShadow" result="shape"/>
</filter>
<filter id="filter1_d" x="172" y="239.543" width="29" height="16.4571" filterUnits="userSpaceOnUse" color-interpolation-filters="sRGB">
<feFlood flood-opacity="0" result="BackgroundImageFix"/>
<feColorMatrix in="SourceAlpha" type="matrix" values="0 0 0 0 0 0 0 0 0 0 0 0 0 0 0 0 0 0 127 0"/>
<feOffset dy="4"/>
<feGaussianBlur stdDeviation="2"/>
<feColorMatrix type="matrix" values="0 0 0 0 0 0 0 0 0 0 0 0 0 0 0 0 0 0 0.25 0"/>
<feBlend mode="normal" in2="BackgroundImageFix" result="effect1_dropShadow"/>
<feBlend mode="normal" in="SourceGraphic" in2="effect1_dropShadow" result="shape"/>
</filter>
<filter id="filter2_d" x="172" y="232" width="28.5227" height="20.3429" filterUnits="userSpaceOnUse" color-interpolation-filters="sRGB">
<feFlood flood-opacity="0" result="BackgroundImageFix"/>
<feColorMatrix in="SourceAlpha" type="matrix" values="0 0 0 0 0 0 0 0 0 0 0 0 0 0 0 0 0 0 127 0"/>
<feOffset dy="4"/>
<feGaussianBlur stdDeviation="2"/>
<feColorMatrix type="matrix" values="0 0 0 0 0 0 0 0 0 0 0 0 0 0 0 0 0 0 0.25 0"/>
<feBlend mode="normal" in2="BackgroundImageFix" result="effect1_dropShadow"/>
<feBlend mode="normal" in="SourceGraphic" in2="effect1_dropShadow" result="shape"/>
</filter>
</defs>
</svg>
